<svg width="14" height="14" viewBox="0 0 14 14" fill="none" xmlns="http://www.w3.org/2000/svg">
<g id="trash">
<g id="trash_2">
<path fill-rule="evenodd" clip-rule="evenodd" d="M9.66491 3.26699V2.73366C9.66491 2.14456 9.18734 1.66699 8.59824 1.66699H5.39824C4.80914 1.66699 4.33158 2.14456 4.33158 2.73366V3.26699H2.73158C2.43702 3.26699 2.19824 3.50577 2.19824 3.80033C2.19824 4.09488 2.43702 4.33366 2.73158 4.33366H3.26491V10.2003C3.26491 11.084 3.98125 11.8003 4.86491 11.8003H9.13157C10.0152 11.8003 10.7316 11.084 10.7316 10.2003V4.33366H11.2649C11.5595 4.33366 11.7982 4.09488 11.7982 3.80033C11.7982 3.50577 11.5595 3.26699 11.2649 3.26699H9.66491ZM8.59824 2.73366H5.39824V3.26699H8.59824V2.73366ZM9.66491 4.33366H4.33158V10.2003C4.33158 10.4949 4.57036 10.7337 4.86491 10.7337H9.13157C9.42613 10.7337 9.66491 10.4949 9.66491 10.2003V4.33366Z" fill="#FF5555"/>
<path d="M5.39824 5.40033H6.46491V9.66699H5.39824V5.40033Z" fill="#FF5555"/>
<path d="M7.53157 5.40033H8.59824V9.66699H7.53157V5.40033Z" fill="#FF5555"/>
</g>
</g>
</svg>
