<svg width="20" height="20" viewBox="0 0 20 20" fill="none" xmlns="http://www.w3.org/2000/svg">
<mask id="mask0_2_915" style="mask-type:alpha" maskUnits="userSpaceOnUse" x="0" y="0" width="20" height="20">
<rect width="20" height="20" fill="#D9D9D9"/>
</mask>
<g mask="url(#mask0_2_915)">
<path fill-rule="evenodd" clip-rule="evenodd" d="M14 9C15.1046 9 16 9.89543 16 11V15C16 16.1046 15.1046 17 14 17H6C4.89543 17 4 16.1046 4 15V11C4 9.89543 4.89543 9 6 9V7C6 4.79086 7.79086 3 10 3C12.2091 3 14 4.79086 14 7V9ZM10 4.33333C11.4728 4.33333 12.6667 5.52724 12.6667 7V9H7.33333V7C7.33333 5.52724 8.52724 4.33333 10 4.33333ZM14 10.3333H6C5.63181 10.3333 5.33333 10.6318 5.33333 11V15C5.33333 15.3682 5.63181 15.6667 6 15.6667H14C14.3682 15.6667 14.6667 15.3682 14.6667 15V11C14.6667 10.6318 14.3682 10.3333 14 10.3333Z" fill="black"/>
</g>
</svg>
